<svg xmlns="http://www.w3.org/2000/svg" width="14" height="14" viewBox="0 0 14 14">
  <path id="icon-task__fin" d="M10.383,8.295H7.588a.7.7,0,0,0,0,1.4h2.795a.7.7,0,0,0,0-1.4Zm5.387.2L14.128,6.9V4.545a.7.7,0,0,0-.7-.7H11.116L9.481,2.2a.7.7,0,0,0-.992,0l-1.6,1.644H4.541a.7.7,0,0,0-.7.7V6.9L2.2,8.5a.7.7,0,0,0,0,.993l1.642,1.637v2.316a.7.7,0,0,0,.7.7H6.889l1.635,1.644a.7.7,0,0,0,.992,0l1.635-1.644h2.313a.7.7,0,0,0,.7-.7V11.128L15.8,9.491a.7.7,0,0,0-.035-.993Zm-2.83,1.847a.7.7,0,0,0-.21.5v1.9h-1.9a.7.7,0,0,0-.5.21L8.985,14.3l-1.348-1.35a.7.7,0,0,0-.5-.21H5.24v-1.9a.7.7,0,0,0-.21-.5L3.682,8.994l1.348-1.35a.7.7,0,0,0,.21-.5v-1.9h1.9a.7.7,0,0,0,.5-.21l1.348-1.35,1.348,1.35a.7.7,0,0,0,.5.21h1.9v1.9a.7.7,0,0,0,.21.5l1.348,1.35Z" transform="translate(-1.994 -1.994)" fill="#3c4b72"/>
</svg>
