<svg xmlns="http://www.w3.org/2000/svg" width="12" height="12" viewBox="0 0 12 12">
  <path id="icon-set" d="M13.592,6.53l-1.134-.378.534-1.068a.6.6,0,0,0-.114-.684L11.6,3.122a.6.6,0,0,0-.69-.114l-1.068.534L9.464,2.408A.6.6,0,0,0,8.9,2H7.1a.6.6,0,0,0-.57.408L6.152,3.542,5.084,3.008a.6.6,0,0,0-.684.114L3.122,4.4a.6.6,0,0,0-.114.69l.534,1.068-1.134.378A.6.6,0,0,0,2,7.1V8.9a.6.6,0,0,0,.408.57l1.134.378-.534,1.068a.6.6,0,0,0,.114.684L4.4,12.878a.6.6,0,0,0,.69.114l1.068-.534.378,1.134a.6.6,0,0,0,.57.408h1.8a.6.6,0,0,0,.57-.408l.378-1.134,1.068.534a.6.6,0,0,0,.678-.114L12.878,11.6a.6.6,0,0,0,.114-.69l-.534-1.068,1.134-.378A.6.6,0,0,0,14,8.9V7.1a.6.6,0,0,0-.408-.57ZM12.8,8.468l-.72.24a1.2,1.2,0,0,0-.7,1.692l.342.684-.66.66-.666-.36a1.2,1.2,0,0,0-1.674.7l-.24.72H7.532l-.24-.72a1.2,1.2,0,0,0-1.692-.7l-.684.342-.66-.66.36-.666a1.2,1.2,0,0,0-.7-1.692l-.72-.24V7.532l.72-.24a1.2,1.2,0,0,0,.7-1.692l-.342-.666.66-.66.666.342a1.2,1.2,0,0,0,1.692-.7l.24-.72h.936l.24.72a1.2,1.2,0,0,0,1.692.7l.684-.342.66.66-.36.666a1.2,1.2,0,0,0,.7,1.674l.72.24ZM8,5.6A2.4,2.4,0,1,0,10.4,8,2.4,2.4,0,0,0,8,5.6ZM8,9.2A1.2,1.2,0,1,1,9.2,8,1.2,1.2,0,0,1,8,9.2Z" transform="translate(-2 -2)" fill="#fff"/>
</svg>
