<svg xmlns="http://www.w3.org/2000/svg" width="100" height="21.333" viewBox="0 0 100 21.333">
  <g id="logo" transform="translate(0 -2.667)">
    <path id="bar" d="M0,0H100V5H0Z" transform="translate(0 19)" fill="#4872f4" opacity="0.4"/>
    <path id="패스_10" data-name="패스 10" d="M-25.4-16.04h-2.76V1.88h2.76V-6.84h2.56V-9.16H-25.4ZM-39.72-11.2H-29.2v-2.24H-33v-2.32h-2.84v2.32h-3.88Zm.64,5.16a4.336,4.336,0,0,0,4.64,4.32A4.347,4.347,0,0,0-29.8-6.04a4.359,4.359,0,0,0-4.64-4.32A4.347,4.347,0,0,0-39.08-6.04Zm2.72,0a1.851,1.851,0,0,1,1.92-2.04,1.891,1.891,0,0,1,1.96,2.04A1.87,1.87,0,0,1-34.44-4,1.831,1.831,0,0,1-36.36-6.04Zm27-9.48H-22.04v2.24h9.76v1.16H-22v5.6H-8.96V-8.76h-10.2V-10h9.8ZM-23.92-3.12h6.76V1.92h2.84V-3.12h6.8V-5.36h-16.4ZM-1.4-12.24v-2.48H-4.2v2.48c-.02,3.34-1.24,6.76-4.4,8.2l1.72,2.28a8.334,8.334,0,0,0,4.1-4.92A7.634,7.634,0,0,0,1.04-2.12L2.72-4.36C-.26-5.78-1.4-9-1.4-12.24ZM3.24,1.88h2.8V-6.88H8.6v-2.4H6.04v-6.76H3.24ZM23.88-7.68H20.2V-9.66a2.968,2.968,0,0,0,2.08-2.66c0-2.18-2.58-3.48-6.56-3.48-4.02,0-6.6,1.3-6.6,3.48a2.91,2.91,0,0,0,2,2.62v2.02H7.56v2.24H23.88ZM9.4-1.4C9.38.72,11.76,1.86,15.68,1.84c3.9.02,6.26-1.12,6.28-3.24-.02-2.1-2.38-3.26-6.28-3.24C11.76-4.66,9.38-3.5,9.4-1.4Zm2.64-10.92c0-.9,1.28-1.34,3.68-1.32,2.36-.02,3.66.42,3.68,1.32-.02.9-1.32,1.3-3.68,1.32C13.32-11.02,12.04-11.42,12.04-12.32Zm.2,10.92c0-.8,1.1-1.12,3.44-1.12,2.3,0,3.44.32,3.44,1.12S17.98-.22,15.68-.24C13.34-.22,12.24-.6,12.24-1.4Zm1.72-6.28V-9a16.27,16.27,0,0,0,1.76.08A14.789,14.789,0,0,0,17.4-9v1.32ZM38.4-16.04H35.56V1.88H38.4ZM23.28-3.32l1.44,2.2C31.26-4.18,33-8.68,33-14.2H24.28V-12h5.88C29.74-8.14,27.82-5.5,23.28-3.32Z" transform="translate(60 19)" fill="#fff"/>
    <path id="ico" d="M8.833,7h5a.833.833,0,1,0,0-1.667h-5A.833.833,0,1,0,8.833,7ZM7.167,10.333h6.667a.833.833,0,1,0,0-1.667H7.167a.833.833,0,1,0,0,1.667Zm0,3.333h6.667a.833.833,0,1,0,0-1.667H7.167a.833.833,0,1,0,0,1.667ZM17.167,2H3.833A.833.833,0,0,0,3,2.833v15a.833.833,0,0,0,1.333.667l1.725-1.292L7.775,18.5a.833.833,0,0,0,1,0L10.5,17.208,12.225,18.5a.833.833,0,0,0,1,0l1.717-1.292L16.667,18.5A.835.835,0,0,0,18,17.833v-15A.833.833,0,0,0,17.167,2Zm-.833,14.167-.892-.667a.833.833,0,0,0-1,0l-1.717,1.292L11,15.5a.833.833,0,0,0-1,0L8.275,16.792,6.558,15.5a.833.833,0,0,0-1,0l-.892.667V3.667H16.333Z" transform="translate(-2 0.667)" fill="#fff"/>
  </g>
</svg>
